PathFileType	4	(X/Y/Z)	TVC_4_BWA_6_walk_RCNL2025.trc
DataRate	CameraRate	NumFrames	NumMarkers	Units	OrigDataRate	OrigDataStartFrame	OrigNumFrames
100	100	9	27	mm	100	106	420
Frame#	Time	R_Shoulder			L_Shoulder			C7			J_Notch			R_Elbow			L_Elbow			R_Wrist			L_Wrist			R_Asis			L_Asis			R_Psis			L_Psis			Sacral			Thoracic			Sternum			R_Thigh_Lateral			R_Knee_Lateral			R_Shank_Lateral			R_Ankle_Lateral			R_Heel			R_Toe			L_Thigh_Lateral			L_Knee_Lateral			L_Shank_Lateral			L_Ankle_Lateral			L_Heel			L_Toe		
		X1	Y1	Z1	X2	Y2	Z2	X3	Y3	Z3	X4	Y4	Z4	X5	Y5	Z5	X6	Y6	Z6	X7	Y7	Z7	X8	Y8	Z8	X9	Y9	Z9	X10	Y10	Z10	X11	Y11	Z11	X12	Y12	Z12	X13	Y13	Z13	X14	Y14	Z14	X15	Y15	Z15	X16	Y16	Z16	X17	Y17	Z17	X18	Y18	Z18	X19	Y19	Z19	X20	Y20	Z20	X21	Y21	Z21	X22	Y22	Z22	X23	Y23	Z23	X24	Y24	Z24	X25	Y25	Z25	X26	Y26	Z26	X27	Y27	Z27
106	1.05000000	-1636.885132	1278.198486	370.155579	-1660.797852	1299.105713	-11.487608	-1706.430054	1356.179688	199.167130	-1561.899780	1239.902100	164.175980	-1604.077271	966.352112	442.364563	-1779.568970	993.495117	-65.768532	-1464.797791	785.997498	407.022461	-1748.276672	779.973328	-87.233536	-1633.034668	846.267395	336.075745	-1654.588013	841.666748	-17.778181	-1786.076782	876.289001	221.912460	-1790.807983	871.576355	130.629105	-1788.442383	873.932678	176.270782	-1784.588135	1109.374634	189.990677	-1523.962769	1051.322388	155.412048	-1666.390503	494.676422	337.835266	-1703.975708	409.057129	282.545990	-1766.473755	244.996017	343.339844	-1848.174561	50.827232	242.902161	-1899.253662	53.192543	201.296860	-1723.174805	33.403912	211.324631	-1561.040649	488.755341	-31.165993	-1537.642700	415.634247	18.957636	-1507.899414	297.041626	-24.660957	-1421.406738	56.265404	59.651821	-1455.320679	36.345329	112.541245	-1288.958740	89.130394	58.700695
107	1.06000000	-1627.849243	1276.527710	369.849274	-1651.958862	1297.570801	-11.809423	-1697.594849	1354.580566	198.918015	-1552.896606	1238.443970	163.804291	-1593.196167	964.673340	441.430054	-1771.531006	992.201782	-65.722031	-1452.104492	785.601868	404.625870	-1741.096008	778.815125	-87.454174	-1624.175659	844.629395	335.827942	-1643.723389	840.591553	-18.393970	-1776.693237	874.661987	221.042053	-1781.189697	869.977295	129.734756	-1778.941467	872.319641	175.388405	-1775.409058	1107.705200	189.619843	-1514.890991	1049.776367	155.223969	-1660.777222	493.508240	337.653839	-1699.150513	408.322815	282.303497	-1763.899536	245.146866	343.299591	-1847.866089	51.805855	243.075317	-1898.964233	54.691334	201.518921	-1723.123901	33.386219	211.351852	-1550.048828	487.993866	-30.630198	-1526.348999	414.800262	19.459105	-1495.579956	296.439087	-24.007429	-1408.983643	55.894638	61.103397	-1443.313354	35.910892	113.702301	-1276.462402	89.008965	61.470650
108	1.07000000	-1618.805054	1274.941650	369.443359	-1643.032104	1296.102661	-12.232636	-1688.728149	1353.045166	198.552277	-1543.830322	1237.091919	163.364502	-1582.479248	963.063293	440.360718	-1763.128296	990.883667	-65.784630	-1439.827148	785.099121	402.181168	-1733.468872	777.704620	-87.778591	-1615.088501	843.005615	335.503937	-1633.239990	839.504517	-18.902670	-1767.139771	873.134338	220.188065	-1771.424438	868.491028	128.844864	-1769.282104	870.812683	174.516464	-1766.110596	1106.072632	189.156189	-1505.679321	1048.352295	154.953186	-1654.951782	492.425354	337.422791	-1694.069702	407.643036	282.032288	-1761.108765	245.419678	343.264801	-1847.494019	52.966507	243.271103	-1898.605591	56.425777	201.760818	-1723.029907	33.370262	211.397415	-1538.840576	487.395386	-30.064728	-1514.837891	414.101166	20.026903	-1483.655762	295.817108	-23.269360	-1398.358276	55.218727	62.549522	-1433.160645	35.362045	114.884727	-1265.631592	87.736649	64.163193
109	1.08000000	-1609.750610	1273.462646	368.939911	-1634.006226	1294.723022	-12.756166	-1679.824951	1351.595337	198.066559	-1534.696777	1235.867188	162.859863	-1571.940918	961.544434	439.155792	-1754.375610	989.571106	-65.961632	-1428.083618	784.476044	399.737320	-1725.354736	776.631287	-88.180275	-1605.771362	841.409607	335.096313	-1623.058105	838.446533	-19.326620	-1757.417725	871.720947	219.338867	-1761.508301	867.143250	127.954308	-1759.463013	869.432098	173.646587	-1756.686890	1104.499023	188.599579	-1496.319214	1047.070923	154.587265	-1648.871216	491.436615	337.144348	-1688.684448	407.020081	281.733521	-1758.081665	245.831009	343.237030	-1847.043823	54.335716	243.486832	-1898.149170	58.429588	202.012497	-1722.886841	33.357071	211.458069	-1527.511963	486.937866	-29.513781	-1503.219238	413.509277	20.648998	-1472.189575	295.125427	-22.423201	-1389.406250	54.295231	63.988071	-1424.738770	34.772518	116.083366	-1256.352417	85.347534	66.752510
110	1.09000000	-1600.684937	1272.113159	368.341309	-1624.870361	1293.454956	-13.380001	-1670.877075	1350.256836	197.459198	-1525.490234	1234.792969	162.288345	-1561.596924	960.138245	437.817810	-1745.296387	988.298279	-66.256538	-1416.898743	783.747528	397.314682	-1716.719727	775.570435	-88.621162	-1596.225098	839.860596	334.598877	-1613.068115	837.463318	-19.699457	-1747.532959	870.440430	218.488861	-1751.447388	865.966187	127.062965	-1749.490173	868.203308	172.775913	-1747.133179	1103.013916	187.950195	-1486.800293	1045.956177	154.117722	-1642.484985	490.550018	336.817566	-1682.939575	406.458954	281.404572	-1754.793213	246.401779	343.215393	-1846.493530	55.948669	243.724503	-1897.562988	60.747364	202.271500	-1722.691162	33.347538	211.528595	-1516.117920	486.638550	-29.002642	-1491.607056	413.024200	21.301468	-1461.227295	294.360504	-21.473280	-1381.972046	53.224030	65.394882	-1417.894043	34.248577	117.270752	-1248.478271	81.923103	69.228867
111	1.10000000	-1591.607178	1270.917114	367.649170	-1615.616699	1292.324585	-14.105579	-1661.870972	1349.061279	196.730560	-1516.201172	1233.896362	161.645538	-1551.463745	958.866455	436.352264	-1735.914185	987.100464	-66.669144	-1406.250305	782.947449	394.918182	-1707.559265	774.503052	-89.069408	-1586.456665	838.383667	334.009583	-1603.163208	836.605835	-20.057608	-1737.497681	869.318054	217.642502	-1741.259277	864.998657	126.177803	-1739.378479	867.158356	171.910152	-1737.448364	1101.657593	187.209854	-1477.110840	1045.036743	153.543579	-1635.732056	489.773499	336.438812	-1676.771606	405.968689	281.040466	-1751.206299	247.159927	343.198334	-1845.810059	57.848602	243.991333	-1896.806519	63.435261	202.546677	-1722.440308	33.342918	211.604263	-1504.676758	486.552155	-28.536566	-1480.099365	412.680908	21.950974	-1450.771484	293.568207	-20.446737	-1375.881226	52.130257	66.723732	-1412.450439	33.908688	118.400818	-1241.845703	77.597351	71.586937
112	1.11000000	-1582.512817	1269.902954	366.866180	-1606.239136	1291.360718	-14.932804	-1652.787354	1348.047363	195.883423	-1506.817383	1233.208496	160.928757	-1541.558105	957.752747	434.768127	-1726.247559	986.012695	-67.196152	-1396.106018	782.117798	392.546890	-1697.901611	773.431976	-89.509674	-1576.477051	837.008484	333.329254	-1593.261108	835.934204	-20.432817	-1727.330811	868.384888	216.814697	-1730.971313	864.282959	125.312569	-1729.151062	866.333923	171.063633	-1727.636963	1100.481079	186.383423	-1467.240479	1044.345581	152.872101	-1628.540405	489.115936	336.003143	-1670.105225	405.562866	280.636078	-1747.267578	248.143570	343.185242	-1844.944702	60.086605	244.299286	-1895.821899	66.560310	202.856567	-1722.131470	33.345127	211.683212	-1493.177856	486.756866	-28.105862	-1468.755493	412.543152	22.560871	-1440.768555	292.839417	-19.390596	-1370.943848	51.134846	67.917099	-1408.214478	33.852173	119.412529	-1236.293701	72.570763	73.814224
113	1.12000000	-1573.391846	1269.104004	365.998169	-1596.728516	1290.592407	-15.855725	-1643.603394	1347.258911	194.923676	-1497.326904	1232.761963	160.139664	-1531.896362	956.823853	433.078583	-1716.311157	985.068787	-67.831955	-1386.440247	781.299805	390.198227	-1687.788757	772.385193	-89.941700	-1566.300415	835.767334	332.560333	-1583.310547	835.518372	-20.847670	-1717.057373	867.673401	216.027878	-1720.616089	863.857544	124.484314	-1718.836731	865.765472	170.256096	-1717.709351	1099.541138	185.480759	-1457.183716	1043.917603	152.116699	-1620.827515	488.586578	335.507812	-1662.848877	405.259583	280.190887	-1742.905273	249.401321	343.180725	-1843.830933	62.721745	244.663330	-1894.531250	70.202301	203.222977	-1721.761963	33.356537	211.764496	-1481.593018	487.330170	-27.694864	-1457.587402	412.684235	23.099024	-1431.124634	292.299225	-18.375919	-1366.963623	50.324787	68.919998	-1404.979736	34.122589	120.239189	-1231.677368	67.121071	75.886711
114	1.13000000	-1564.227295	1268.557129	365.053833	-1587.075439	1290.047607	-16.862534	-1634.295166	1346.739258	193.862106	-1487.721802	1232.584351	159.283447	-1522.493042	956.109375	431.300568	-1706.114136	984.300842	-68.568489	-1377.238831	780.529846	387.869919	-1677.255249	771.417786	-90.377213	-1555.946411	834.696106	331.709076	-1573.285889	835.432251	-21.315777	-1706.706299	867.211304	215.305664	-1710.223999	863.748657	123.707993	-1708.465149	865.479980	169.506828	-1707.679810	1098.888672	184.516785	-1446.945801	1043.788330	151.292603	-1612.504272	488.190582	334.958099	-1654.892456	405.078186	279.714417	-1738.028320	250.988205	343.199799	-1842.382080	65.818855	245.099625	-1892.837769	74.454575	203.666428	-1721.331055	33.379353	211.845840	-1469.889526	488.320770	-27.291794	-1446.570679	413.156128	23.543440	-1421.732178	292.073486	-17.495075	-1363.755249	49.735817	69.693565	-1402.537598	34.687397	120.828278	-1227.875488	61.585403	77.775826
